<svg width="20" height="20" viewBox="0 0 20 20" xmlns="http://www.w3.org/2000/svg">
<path d="M4.99998 16.6667C4.54165 16.6667 4.14942 16.5036 3.82331 16.1775C3.4972 15.8514 3.33387 15.4589 3.33331 15V13.3333C3.33331 13.0972 3.41331 12.8995 3.57331 12.74C3.73331 12.5806 3.93109 12.5006 4.16665 12.5C4.4022 12.4995 4.60026 12.5795 4.76081 12.74C4.92137 12.9006 5.00109 13.0983 4.99998 13.3333V15H15V13.3333C15 13.0972 15.08 12.8995 15.24 12.74C15.4 12.5806 15.5978 12.5006 15.8333 12.5C16.0689 12.4995 16.2669 12.5795 16.4275 12.74C16.588 12.9006 16.6678 13.0983 16.6666 13.3333V15C16.6666 15.4583 16.5036 15.8508 16.1775 16.1775C15.8514 16.5042 15.4589 16.6672 15 16.6667H4.99998ZM9.16665 6.54168L7.60415 8.10418C7.43748 8.27085 7.2397 8.35085 7.01081 8.34418C6.78192 8.33751 6.58387 8.25057 6.41665 8.08335C6.26387 7.91668 6.18387 7.72223 6.17665 7.50001C6.16942 7.27779 6.24942 7.08335 6.41665 6.91668L9.41665 3.91668C9.49998 3.83335 9.59026 3.77446 9.68748 3.74001C9.7847 3.70557 9.88887 3.68807 9.99998 3.68751C10.1111 3.68696 10.2153 3.70446 10.3125 3.74001C10.4097 3.77557 10.5 3.83446 10.5833 3.91668L13.5833 6.91668C13.75 7.08335 13.83 7.27779 13.8233 7.50001C13.8166 7.72223 13.7366 7.91668 13.5833 8.08335C13.4166 8.25001 13.2189 8.33696 12.99 8.34418C12.7611 8.3514 12.563 8.2714 12.3958 8.10418L10.8333 6.54168V12.5C10.8333 12.7361 10.7533 12.9342 10.5933 13.0942C10.4333 13.2542 10.2355 13.3339 9.99998 13.3333C9.76442 13.3328 9.56665 13.2528 9.40665 13.0933C9.24665 12.9339 9.16665 12.7361 9.16665 12.5V6.54168Z" />
</svg>
